<?xml version="1.0" encoding="utf-8"?>
<!-- Generator: Adobe Illustrator 26.0.0, SVG Export Plug-In . SVG Version: 6.00 Build 0)  -->
<svg version="1.1" id="Capa_1" xmlns="http://www.w3.org/2000/svg" xmlns:xlink="http://www.w3.org/1999/xlink" x="0px" y="0px"
	 viewBox="0 0 150 150" style="enable-background:new 0 0 150 150;" xml:space="preserve">
<style type="text/css">
	.st0{fill:#FFFFFF;}
</style>
<g id="XMLID_47_">
	<path id="XMLID_52_" class="st0" d="M75,35.82c13.16,0,14.72,0.05,19.91,0.29c4.81,0.22,7.41,1.02,9.15,1.7
		c2.3,0.89,3.94,1.96,5.67,3.69c1.73,1.73,2.79,3.37,3.69,5.67c0.67,1.74,1.48,4.35,1.7,9.15c0.24,5.2,0.29,6.75,0.29,19.91
		c0,13.16-0.05,14.72-0.29,19.91c-0.22,4.81-1.02,7.41-1.7,9.15c-0.89,2.3-1.96,3.94-3.69,5.67c-1.73,1.73-3.37,2.79-5.67,3.69
		c-1.74,0.67-4.35,1.48-9.15,1.7c-5.2,0.24-6.75,0.29-19.91,0.29s-14.72-0.05-19.91-0.29c-4.81-0.22-7.41-1.02-9.15-1.7
		c-2.3-0.89-3.94-1.96-5.67-3.69c-1.73-1.73-2.79-3.37-3.69-5.67c-0.67-1.74-1.48-4.34-1.7-9.15c-0.24-5.2-0.29-6.75-0.29-19.91
		c0-13.16,0.05-14.72,0.29-19.91c0.22-4.81,1.02-7.41,1.7-9.15c0.89-2.3,1.96-3.94,3.69-5.67c1.73-1.73,3.37-2.79,5.67-3.69
		c1.74-0.67,4.35-1.48,9.15-1.7C60.28,35.87,61.84,35.82,75,35.82 M75,26.94c-13.38,0-15.06,0.06-20.32,0.3
		c-5.25,0.24-8.83,1.07-11.96,2.29c-3.24,1.26-5.99,2.94-8.73,5.69c-2.74,2.74-4.42,5.49-5.68,8.73c-1.22,3.13-2.05,6.72-2.29,11.96
		c-0.24,5.26-0.3,6.93-0.3,20.32s0.05,15.06,0.3,20.32c0.24,5.25,1.07,8.83,2.29,11.96c1.26,3.24,2.94,5.99,5.68,8.73
		c2.74,2.74,5.49,4.42,8.73,5.69c3.13,1.22,6.72,2.05,11.96,2.29c5.26,0.24,6.93,0.3,20.32,0.3s15.06-0.06,20.32-0.3
		c5.25-0.24,8.83-1.07,11.96-2.29c3.24-1.26,5.99-2.94,8.73-5.69c2.74-2.74,4.42-5.49,5.69-8.73c1.22-3.13,2.05-6.72,2.29-11.96
		c0.24-5.26,0.3-6.93,0.3-20.32s-0.05-15.06-0.3-20.32c-0.24-5.25-1.07-8.83-2.29-11.96c-1.26-3.24-2.94-5.99-5.69-8.73
		c-2.74-2.74-5.49-4.42-8.73-5.69c-3.13-1.22-6.72-2.05-11.96-2.29C90.06,26.99,88.38,26.94,75,26.94"/>
	<path id="XMLID_49_" class="st0" d="M75,50.91c-13.98,0-25.31,11.33-25.31,25.31S61.02,101.53,75,101.53S100.3,90.2,100.3,76.22
		S88.98,50.91,75,50.91 M75,92.64c-9.07,0-16.43-7.36-16.43-16.43S65.92,59.79,75,59.79c9.07,0,16.43,7.35,16.43,16.43
		C91.43,85.29,84.07,92.64,75,92.64"/>
	<path id="XMLID_48_" class="st0" d="M107.22,49.91c0,3.27-2.65,5.91-5.91,5.91c-3.27,0-5.91-2.65-5.91-5.91S98.04,44,101.3,44
		C104.57,44,107.22,46.65,107.22,49.91"/>
</g>
</svg>
