<?xml version="1.0" encoding="utf-8"?>
<!-- Generator: Adobe Illustrator 26.0.0, SVG Export Plug-In . SVG Version: 6.00 Build 0)  -->
<svg version="1.1" id="Capa_1" xmlns="http://www.w3.org/2000/svg" xmlns:xlink="http://www.w3.org/1999/xlink" x="0px" y="0px"
	 viewBox="0 0 377.4 132.9" style="enable-background:new 0 0 377.4 132.9;" xml:space="preserve">
<style type="text/css">
	.st0{fill:#004AAD;}
	.st1{clip-path:url(#SVGID_00000060727757559321277450000003621413514869043899_);}
	.st2{fill:#183E9F;}
	.st3{clip-path:url(#SVGID_00000121974183377775393940000006481434749329135292_);}
	.st4{clip-path:url(#SVGID_00000079479211879863725720000017892388796381159053_);}
	.st5{filter:url(#c09ab04841);}
	.st6{opacity:0.82;}
	.st7{mask:url(#e8ae0b3964_00000013166097017759828860000012411333663471064981_);}
	.st8{clip-path:url(#SVGID_00000065770671720048404720000000571383585692782723_);}
	.st9{clip-path:url(#SVGID_00000063627867501282889900000014582232440039632771_);}
	.st10{clip-path:url(#SVGID_00000130621899384362086110000013542957345453342353_);}
	.st11{fill:#5CE1E6;}
	.st12{fill:#183172;}
</style>
<filter  height="100%" id="c09ab04841" width="100%" x="0%" y="0%">
	<feColorMatrix  color-interpolation-filters="sRGB" values="0 0 0 0 1 0 0 0 0 1 0 0 0 0 1 0 0 0 1 0"></feColorMatrix>
</filter>
<g>
	<g transform="translate(215.410536, 54.857888)">
	</g>
</g>
<g>
	<g transform="translate(154.464933, 83.499472)">
	</g>
</g>
<g>
	<g transform="translate(223.164853, 83.499472)">
	</g>
</g>
<g>
	<g transform="translate(242.229828, 83.499472)">
	</g>
</g>
<g>
	<g transform="translate(258.879801, 83.499472)">
	</g>
</g>
<path class="st0" d="M36.6,62.6c0-20.4,16.5-36.9,36.9-36.9c9.3,0,17.8,3.5,24.3,9.2c-7.1-11-19.4-18.2-33.4-18.2
	c-21.9,0-39.7,17.8-39.7,39.7c0,19.1,13.4,35,31.3,38.8C44.5,88.9,36.6,76.7,36.6,62.6"/>
<g>
	<defs>
		<rect id="SVGID_1_" x="14.5" y="6.7" width="121.3" height="119.5"/>
	</defs>
	<clipPath id="SVGID_00000102524828602195878430000009017696548143826590_">
		<use xlink:href="#SVGID_1_"  style="overflow:visible;"/>
	</clipPath>
	<g style="clip-path:url(#SVGID_00000102524828602195878430000009017696548143826590_);">
		<path class="st2" d="M111.6,6.9c-0.7-0.3-1.1,0.5-1.2,1.5c-0.2,2,0.6,4,2.1,5.3c15.8,13.9,12.8,47.9,2.4,45.8
			c-6.8-1.3,0.4-21.5-5.2-22.2c-3.8-0.5-7.1,8.9-6.9,21.2c0.1,7.1,2.4,12.9,4.4,17.9c2.9,7.3,0.2,15.7-6.4,19.9
			c-21.1,13.5-49.5,11-67.9-7.5c-9.8-9.8-15-22.3-15.9-35c-4.1,18.9,1.2,39.4,16,54c18.5,18.5,48.2,22.3,70.8,9.2
			c21.5-12.4,30.5-38,31.8-61.8C137.3,25.3,119.9,10.1,111.6,6.9z M108.7,23.5c8.2,7.2,11.3,19.9,11,30.1c1.3-3.2,2-7.8,1.8-12.8
			c-0.2-6.6-1.8-12.8-4.4-17.9c-3.4-3.3-6.8-5.4-9.3-6.3c-0.7-0.3-1.1,0.5-1.2,1.6C106.3,20.2,107.2,22.2,108.7,23.5"/>
	</g>
</g>
<g>
	<defs>
		<rect id="SVGID_00000054972907340995511400000017027792379828636830_" x="49.1" y="45.7" width="52.1" height="45.6"/>
	</defs>
	<clipPath id="SVGID_00000116197662775926292650000009691310507713243318_">
		<use xlink:href="#SVGID_00000054972907340995511400000017027792379828636830_"  style="overflow:visible;"/>
	</clipPath>
	<g style="clip-path:url(#SVGID_00000116197662775926292650000009691310507713243318_);">
		<g>
			<defs>
				<path id="SVGID_00000132048792069213890050000010317348744698010301_" d="M49.1,59.2c0,14.5,26,32.2,26,32.2s25.9-17.8,26-32.2
					c0-7.4-6-13.5-13.5-13.5c-5.7,0-10.6,3.7-12.6,8.7c-1.9-5-6.8-8.7-12.6-8.7C55.1,45.7,49.1,51.8,49.1,59.2"/>
			</defs>
			<clipPath id="SVGID_00000018228550293603193470000010800689722867375744_">
				<use xlink:href="#SVGID_00000132048792069213890050000010317348744698010301_"  style="overflow:visible;"/>
			</clipPath>
			<g style="clip-path:url(#SVGID_00000018228550293603193470000010800689722867375744_);">
				<path class="st0" d="M49.1,45.7h52v45.6h-52V45.7z"/>
			</g>
		</g>
	</g>
</g>
<defs>
	<filter id="Adobe_OpacityMaskFilter" filterUnits="userSpaceOnUse" x="53.2" y="54.2" width="44" height="38.7">
		<feColorMatrix  type="matrix" values="1 0 0 0 0  0 1 0 0 0  0 0 1 0 0  0 0 0 1 0"/>
	</filter>
</defs>
<mask maskUnits="userSpaceOnUse" x="53.2" y="54.2" width="44" height="38.7" id="e8ae0b3964_00000013166097017759828860000012411333663471064981_">
	<g class="st5">
		<g>
			<rect x="-84.8" y="-69.1" class="st6" width="600" height="600"/>
		</g>
	</g>
</mask>
<g class="st7">
	<g transform="matrix(1, 0, 0, 1, 66, 55)">
		<g>
			<defs>
				<rect id="SVGID_00000018216279524159468310000005262826624417074366_" x="-12.8" y="-0.8" width="44" height="38.7"/>
			</defs>
			<clipPath id="SVGID_00000029016608084599508980000017992543339700567979_">
				<use xlink:href="#SVGID_00000018216279524159468310000005262826624417074366_"  style="overflow:visible;"/>
			</clipPath>
			<g style="clip-path:url(#SVGID_00000029016608084599508980000017992543339700567979_);">
				<g>
					<defs>
						<rect id="SVGID_00000024685239875906850020000008966798517053923488_" x="-11.6" y="0" width="41.5" height="36.3"/>
					</defs>
					<clipPath id="SVGID_00000140710045134523297770000000460422109139406522_">
						<use xlink:href="#SVGID_00000024685239875906850020000008966798517053923488_"  style="overflow:visible;"/>
					</clipPath>
					<g style="clip-path:url(#SVGID_00000140710045134523297770000000460422109139406522_);">
						<g>
							<defs>
								<path id="SVGID_00000162332494462519153360000001620524834365171130_" d="M-11.6,10.8c0,11.5,20.7,25.6,20.7,25.6
									s20.6-14.2,20.7-25.6C29.8,4.9,25,0,19.1,0c-4.5,0-8.4,2.9-10,6.9C7.6,2.9,3.7,0-0.9,0C-6.8,0-11.6,4.9-11.6,10.8"/>
							</defs>
							<clipPath id="SVGID_00000162323778103268020680000008203409331271156356_">
								<use xlink:href="#SVGID_00000162332494462519153360000001620524834365171130_"  style="overflow:visible;"/>
							</clipPath>
							<g style="clip-path:url(#SVGID_00000162323778103268020680000008203409331271156356_);">
								<path class="st11" d="M-11.6,0h41.4v36.3h-41.4V0z"/>
							</g>
						</g>
					</g>
				</g>
			</g>
		</g>
	</g>
</g>
<g>
	<g transform="translate(138.384955, 54.857888)">
		<g>
			<path class="st12" d="M35.4-13.8c0,4-1.2,7.2-3.6,9.6c-2.2,2.2-5.2,3.4-8.9,3.4h-9.2v-23.8c0,0-0.1-0.4-0.3-1
				c-0.2-0.7-0.3-1.1-0.3-1.1H23c3.9,0,7,1.2,9.2,3.6C34.3-20.9,35.4-17.7,35.4-13.8z M30.2-13.6c0-1.7-0.2-3.3-0.7-4.6
				c-0.5-1.4-1.3-2.6-2.5-3.5c-1.2-1-2.6-1.5-4.4-1.5h-4v18.9h4.1c1.3,0,2.4-0.3,3.4-0.8c1-0.5,1.8-1.2,2.4-2.1
				c0.6-0.9,1-1.9,1.3-2.9C30-11.2,30.2-12.4,30.2-13.6z"/>
		</g>
	</g>
</g>
<g>
	<g transform="translate(156.970003, 54.857888)">
		<g>
			<path class="st12" d="M18.4-9.7c0-2.6,0.8-4.8,2.4-6.6c1.6-1.8,3.7-2.7,6.2-2.7c2.6,0,4.7,0.9,6.2,2.7c1.6,1.8,2.4,4,2.4,6.6
				s-0.8,4.8-2.4,6.6c-1.6,1.8-3.6,2.6-6.2,2.6c-2.6,0-4.7-0.9-6.3-2.6C19.2-4.8,18.4-7,18.4-9.7z M27-16c-1,0-1.8,0.4-2.4,1.1
				c-0.6,0.8-1,1.6-1.2,2.4c-0.2,0.9-0.2,1.8-0.2,2.8c0,1,0.1,1.9,0.2,2.8C23.6-6,24-5.1,24.6-4.4C25.2-3.6,26-3.3,27-3.3
				c0.8,0,1.4-0.2,2-0.6c0.6-0.4,1-0.9,1.2-1.6c0.2-0.7,0.4-1.4,0.5-2c0.1-0.7,0.2-1.4,0.2-2.1c0-0.8-0.1-1.5-0.2-2.1
				c-0.1-0.7-0.3-1.3-0.5-2C30-14.5,29.6-15,29-15.4C28.5-15.8,27.8-16,27-16z"/>
		</g>
	</g>
</g>
<g>
	<g transform="translate(171.221198, 54.857888)">
		<g>
			<path class="st12" d="M37.9-2.1c-1.2,0.6-2.2,1-3.1,1.3c-0.9,0.3-1.9,0.4-3,0.4c-2.8,0-4.9-0.8-6.4-2.5c-1.5-1.7-2.2-3.9-2.2-6.7
				c0-2.8,0.8-5,2.5-6.7c1.7-1.7,3.9-2.6,6.6-2.6c0.9,0,1.8,0.2,2.8,0.5c1,0.3,1.9,0.7,2.6,1.2l-2.1,2.7c-1.2-0.9-2.4-1.4-3.6-1.4
				c-1.4,0-2.4,0.7-3.1,2c-0.7,1.3-1,2.7-1,4.2c0,1.1,0.1,2,0.4,3c0.3,0.9,0.8,1.7,1.5,2.4c0.7,0.7,1.6,1,2.7,1
				c1.1,0,2.3-0.6,3.7-1.7L37.9-2.1z"/>
		</g>
	</g>
</g>
<g>
	<g transform="translate(183.185817, 54.857888)">
		<g>
			<path class="st12" d="M37.9-1.2c-1.6,0.5-3,0.8-4.2,0.8c-1.5,0-2.7-0.4-3.4-1.1c-0.7-0.7-1.1-1.8-1.1-3.4v-10.7h-2.9V-18
				c0.9,0,1.7-0.3,2.4-0.9c0.7-0.6,1.2-1.3,1.6-2.1c0.4-0.8,0.7-1.6,0.9-2.6h3.1c-0.5,2-0.7,3.7-0.7,5.1h4.3L37-15.7h-3.4v9.8
				c0,1.6,0.5,2.4,1.5,2.4c0.5,0,1.3-0.1,2.3-0.4L37.9-1.2z"/>
		</g>
	</g>
</g>
<g>
	<g transform="translate(191.880112, 54.857888)">
		<g>
			<path class="st12" d="M30.1-9.7c0-2.6,0.8-4.8,2.4-6.6c1.6-1.8,3.7-2.7,6.2-2.7c2.6,0,4.7,0.9,6.2,2.7c1.6,1.8,2.4,4,2.4,6.6
				s-0.8,4.8-2.4,6.6c-1.6,1.8-3.6,2.6-6.2,2.6c-2.6,0-4.7-0.9-6.2-2.6C30.9-4.8,30.1-7,30.1-9.7z M38.7-16c-1,0-1.8,0.4-2.4,1.1
				c-0.6,0.8-1,1.6-1.2,2.4c-0.2,0.9-0.2,1.8-0.2,2.8c0,1,0.1,1.9,0.2,2.8c0.2,0.9,0.6,1.7,1.2,2.5c0.6,0.7,1.4,1.1,2.4,1.1
				c0.8,0,1.4-0.2,2-0.6c0.6-0.4,1-0.9,1.2-1.6c0.2-0.7,0.4-1.4,0.5-2c0.1-0.7,0.2-1.4,0.2-2.1c0-0.8-0.1-1.5-0.2-2.1
				c-0.1-0.7-0.3-1.3-0.5-2c-0.2-0.7-0.7-1.2-1.2-1.6C40.1-15.8,39.4-16,38.7-16z"/>
		</g>
	</g>
</g>
<g>
	<g transform="translate(206.131308, 54.857888)">
		<g>
			<path class="st12" d="M46.4-18.8l-0.7,4.2h-0.1c-1,0-1.9,0.3-2.7,0.9c-0.8,0.6-1.5,1.4-2.2,2.4v10.5h-4.2v-12.9
				c0-2.2-0.4-3.7-1.1-4.8l4.5-0.4c0.5,1.2,0.8,2.4,0.9,3.7c0.6-1,1.5-1.9,2.5-2.6C44.2-18.5,45.3-18.8,46.4-18.8z"/>
		</g>
	</g>
</g>
<g>
	<g transform="translate(221.525787, 54.857888)">
		<g>
			<path class="st12" d="M56.6-8.5C56.6-6,55.7-4,54-2.6c-1.8,1.4-3.9,2.1-6.5,2.1c-3.2,0-6-0.7-8.3-2l1.7-3.9
				c1.8,1.7,3.9,2.6,6.2,2.6c1.2,0,2.2-0.3,3.1-1c0.9-0.7,1.3-1.6,1.3-2.8c0-0.9-0.3-1.6-0.9-2.3c-0.6-0.7-1.3-1.2-2.1-1.6
				c-0.8-0.4-1.8-0.8-2.8-1.3c-1-0.5-1.9-1-2.8-1.5c-0.8-0.5-1.5-1.3-2.1-2.2c-0.6-1-0.8-2.1-0.8-3.3c0-2.4,0.8-4.3,2.5-5.5
				c1.7-1.2,3.9-1.9,6.8-1.9c1.1,0,2.3,0.2,3.7,0.6c1.4,0.4,2.5,0.9,3.2,1.5l-2.5,3c-1.3-1.2-3-1.8-4.9-1.8c-1,0-1.8,0.3-2.6,0.8
				c-0.7,0.5-1.1,1.2-1.1,2.2c0,0.8,0.3,1.6,0.9,2.2c0.6,0.6,1.3,1.1,2.1,1.5c0.8,0.4,1.8,0.8,2.8,1.4c1,0.5,1.9,1,2.8,1.6
				c0.8,0.5,1.5,1.3,2.1,2.3C56.3-10.9,56.6-9.8,56.6-8.5z"/>
		</g>
	</g>
</g>
<g>
	<g transform="translate(235.245223, 54.857888)">
		<g>
			<path class="st12" d="M61.9-1.5c-0.2,0-0.5,0.1-1,0.3c-0.4,0.1-0.8,0.2-1.1,0.3c-0.3,0.1-0.6,0.2-1,0.2c-0.4,0.1-0.7,0.1-1,0.1
				c-0.7,0-1.3-0.2-1.8-0.6c-0.5-0.4-0.8-1-1-1.7c-1.2,1.7-3,2.5-5.3,2.5c-1.4,0-2.6-0.4-3.6-1.2c-0.9-0.8-1.4-1.9-1.4-3.3
				c0-1.2,0.3-2.3,0.9-3.1C46.2-9,47-9.6,48-10c1-0.4,2-0.7,3.1-0.9c1-0.2,2.1-0.3,3.2-0.3v-2.3c0-0.9-0.2-1.6-0.6-1.9
				c-0.4-0.4-1.1-0.6-1.9-0.6c-1.2,0-2.8,0.7-4.5,2.1l-1.7-2.8c2.1-1.5,4.5-2.2,7.1-2.2c1.9,0,3.3,0.5,4.4,1.5c1,1,1.6,2.4,1.6,4.3
				v7.7c0,1.2,0.3,1.8,0.8,1.8c0.2,0,0.8-0.1,1.8-0.4L61.9-1.5z M54.3-7.4v-0.8c-3.4,0-5.2,0.9-5.2,2.8c0,0.5,0.2,0.9,0.6,1.2
				c0.4,0.3,0.9,0.5,1.5,0.5c0.9,0,1.7-0.4,2.2-1.1C54-5.6,54.3-6.5,54.3-7.4z"/>
		</g>
	</g>
</g>
<g>
	<g transform="translate(248.379717, 54.857888)">
		<g>
			<path class="st12" d="M54.6-0.8h-4.3v-25.4c0,0,0-0.2-0.1-0.5c-0.1-0.3-0.1-0.6-0.2-0.9c-0.1-0.3-0.1-0.5-0.1-0.5h4.7V-0.8z"/>
		</g>
	</g>
</g>
<g>
	<g transform="translate(255.053319, 54.857888)">
		<g>
			<path class="st12" d="M70.6-1.5c-0.2,0-0.6,0.2-1.2,0.4c-0.7,0.2-1.2,0.3-1.6,0.4c-0.4,0.1-0.8,0.1-1.2,0.1
				c-0.7,0-1.3-0.2-1.8-0.6c-0.5-0.4-0.8-1-1-1.7C62-1.2,60-0.3,57.9-0.3c-1.9,0-3.3-0.5-4.1-1.6C53-3,52.6-4.6,52.6-6.5v-10
				l-0.4-1.9h4.7v11.2c0,2.4,0.8,3.5,2.3,3.5c1,0,1.9-0.3,2.6-0.9C62.6-5.3,63-6.2,63-7.2v-9.4c0,0,0-0.2-0.1-0.5
				c-0.1-0.3-0.1-0.6-0.2-0.9c-0.1-0.3-0.1-0.5-0.1-0.6h4.8v12.9c0,1.2,0.3,1.9,0.9,1.9c0.1,0,0.6-0.1,1.7-0.4L70.6-1.5z"/>
		</g>
	</g>
</g>
<g>
	<g transform="translate(269.75651, 54.857888)">
		<g>
			<path class="st12" d="M73.4-0.9l-4.3,0.4c-0.2-0.5-0.4-1.2-0.5-2.1C68.1-2,67.4-1.4,66.5-1c-0.9,0.4-1.9,0.6-2.8,0.6
				c-2.4,0-4.2-0.9-5.6-2.7c-1.3-1.8-2-3.9-2-6.4c0-2.7,0.7-4.9,2.1-6.7c1.4-1.8,3.5-2.7,6.1-2.7c1.7,0,3,0.4,3.9,1.1
				c0-0.6,0-1.4,0-2.2v-6.2l-0.5-1.9h4.8v22.2C72.5-3.7,72.8-2,73.4-0.9z M68.3-5.4v-5.8c0-1.3-0.3-2.5-0.8-3.4
				c-0.5-0.9-1.4-1.3-2.7-1.3c-1,0-1.8,0.4-2.4,1.1c-0.6,0.7-1,1.5-1.2,2.4c-0.2,0.9-0.3,1.8-0.3,2.7c0,1.6,0.3,3,1,4.2
				c0.7,1.3,1.7,1.9,3.1,1.9c0.6,0,1.3-0.2,1.9-0.5C67.4-4.4,67.9-4.9,68.3-5.4z"/>
		</g>
	</g>
</g>
<g>
	<g transform="translate(138.384955, 83.499472)">
		<g>
			<path class="st2" d="M18,8.7h-1.9V-4.5h-4.3v-1.4h10.6v1.4H18V8.7z"/>
		</g>
	</g>
</g>
<g>
	<g transform="translate(147.054942, 83.499472)">
		<g>
			<path class="st2" d="M22.4,6.6l0.7,1.2C22.2,8.6,21,9,19.7,9c-1.4,0-2.6-0.5-3.4-1.4c-0.8-1-1.2-2.2-1.2-3.7
				c0-0.9,0.1-1.8,0.4-2.5c0.3-0.8,0.8-1.4,1.5-2c0.7-0.5,1.5-0.8,2.4-0.8c1.2,0,2.1,0.3,2.8,1c0.7,0.7,1.1,1.6,1.1,2.8
				c0,0.8-0.3,1.3-1,1.3h-5.4v0.2c0,1,0.3,1.8,0.8,2.6c0.5,0.8,1.2,1.2,2.1,1.2c0.4,0,0.9-0.1,1.4-0.2C21.6,7.1,22,6.9,22.4,6.6z
				 M17,2.4h4.2c0.2,0,0.2,0,0.3-0.1c0-0.1,0.1-0.2,0.1-0.3c0-0.6-0.2-1.1-0.5-1.5c-0.3-0.4-0.8-0.6-1.4-0.6c-0.6,0-1.2,0.3-1.7,0.8
				C17.4,1.1,17.1,1.7,17,2.4z"/>
		</g>
	</g>
</g>
<g>
	<g transform="translate(157.914926, 83.499472)">
		<g>
			<path class="st2" d="M27.5,7.2l0.3,1c-0.1,0-0.2,0.1-0.5,0.2c-0.2,0.1-0.4,0.2-0.5,0.2c-0.1,0-0.3,0.1-0.5,0.1
				c-0.2,0.1-0.3,0.1-0.5,0.1c-0.4,0-0.7-0.1-1-0.4c-0.2-0.3-0.4-0.6-0.5-1c-0.9,0.9-1.9,1.4-3,1.4c-0.8,0-1.5-0.2-2-0.7
				c-0.5-0.5-0.8-1.1-0.8-1.9c0-2.2,1.9-3.4,5.7-3.4V1.8c0-1.3-0.6-2-1.7-2c-0.5,0-1,0.1-1.6,0.3c-0.5,0.2-1,0.5-1.3,0.9l-0.8-1.2
				c1.1-0.9,2.3-1.3,3.8-1.3c1,0,1.8,0.3,2.4,0.9c0.5,0.6,0.8,1.4,0.8,2.4v5c0,0.3,0,0.5,0.1,0.6c0.1,0.1,0.2,0.2,0.4,0.2
				C26.7,7.5,27,7.4,27.5,7.2z M24.4,4.8V4.2c-0.5,0-0.9,0-1.3,0.1c-0.3,0-0.8,0.1-1.2,0.2c-0.5,0.1-0.8,0.3-1.1,0.6
				c-0.2,0.3-0.4,0.7-0.4,1.1c0,0.4,0.1,0.8,0.4,1c0.3,0.2,0.7,0.3,1.2,0.3c0.7,0,1.2-0.3,1.7-0.8C24.2,6.2,24.4,5.5,24.4,4.8z"/>
		</g>
	</g>
</g>
<g>
	<g transform="translate(165.324918, 83.499472)">
		<g>
			<path class="st2" d="M21.8,13h-0.8v-1.3h0.2c0.4,0,0.8-0.1,1.1-0.3c0.3-0.2,0.6-0.4,0.8-0.8c0.2-0.3,0.4-0.7,0.6-1
				c0.1-0.3,0.3-0.6,0.4-1.1l-3.6-9.9h1.8L25,6.3l2.6-7.6h1.6l-3.5,10C24.6,11.6,23.4,13,21.8,13z"/>
		</g>
	</g>
</g>
<g>
	<g transform="translate(172.164914, 83.499472)">
		<g>
			<path class="st2" d="M33.3,7.2l0.3,1c-0.1,0-0.2,0.1-0.5,0.2c-0.2,0.1-0.4,0.2-0.5,0.2c-0.1,0-0.3,0.1-0.5,0.1
				c-0.2,0.1-0.3,0.1-0.5,0.1c-0.4,0-0.7-0.1-1-0.4c-0.2-0.3-0.4-0.6-0.4-1c-0.9,1-2,1.4-3.1,1.4c-1.1,0-1.8-0.3-2.3-0.9
				c-0.5-0.6-0.7-1.5-0.7-2.6V0c0,0,0-0.1-0.1-0.3c0-0.2-0.1-0.4-0.1-0.6c0-0.2-0.1-0.3-0.1-0.3h1.9v6.1c0,0.4,0,0.7,0,0.9
				c0,0.2,0.1,0.5,0.2,0.8c0.1,0.3,0.3,0.5,0.5,0.6c0.2,0.2,0.5,0.2,0.9,0.2c0.8,0,1.4-0.2,1.9-0.7C30,6.3,30.2,5.7,30.2,5V0
				c0,0,0-0.1-0.1-0.3c0-0.2-0.1-0.4-0.1-0.6C30-1.1,30-1.2,30-1.2h1.9v8c0,0.3,0,0.5,0.1,0.6c0.1,0.1,0.2,0.2,0.4,0.2
				C32.5,7.5,32.8,7.4,33.3,7.2z"/>
		</g>
	</g>
</g>
<g>
	<g transform="translate(180.4599, 83.499472)">
		<g>
			<path class="st2" d="M35.5,8.7l-1.8,0.2c-0.2-0.4-0.3-0.9-0.4-1.4c-0.8,1-1.7,1.4-2.9,1.4c-1.3,0-2.3-0.5-3-1.5
				c-0.7-1-1.1-2.2-1.1-3.6c0-1.5,0.4-2.7,1.1-3.8c0.8-1,1.9-1.5,3.3-1.5c1,0,1.9,0.3,2.5,0.9v-4.8l-0.3-1.2h1.9V5.9
				C34.8,7,35,8,35.5,8.7z M33.2,6.2V2.8c0-0.9-0.2-1.6-0.6-2.1c-0.4-0.5-1-0.8-1.9-0.8c-0.5,0-0.9,0.1-1.3,0.3
				c-0.4,0.2-0.6,0.5-0.8,0.9c-0.2,0.4-0.3,0.8-0.4,1.2C28.1,2.8,28,3.2,28,3.7c0,1,0.2,1.9,0.7,2.7c0.5,0.7,1.2,1.1,2.2,1.1
				C31.7,7.5,32.4,7.1,33.2,6.2z"/>
		</g>
	</g>
</g>
<g>
	<g transform="translate(188.829891, 83.499472)">
		<g>
			<path class="st2" d="M37.8,7.2l0.3,1c-0.1,0-0.2,0.1-0.5,0.2c-0.2,0.1-0.4,0.2-0.5,0.2c-0.1,0-0.3,0.1-0.5,0.1
				c-0.2,0.1-0.3,0.1-0.5,0.1c-0.4,0-0.7-0.1-1-0.4c-0.2-0.3-0.4-0.6-0.5-1c-0.9,0.9-1.9,1.4-3,1.4c-0.8,0-1.5-0.2-2-0.7
				C29.3,7.7,29,7.1,29,6.3c0-2.2,1.9-3.4,5.7-3.4V1.8c0-1.3-0.6-2-1.7-2c-0.5,0-1,0.1-1.6,0.3c-0.5,0.2-1,0.5-1.3,0.9l-0.8-1.2
				c1.1-0.9,2.3-1.3,3.8-1.3c1,0,1.8,0.3,2.4,0.9c0.5,0.6,0.8,1.4,0.8,2.4v5c0,0.3,0,0.5,0.1,0.6c0.1,0.1,0.2,0.2,0.4,0.2
				C37,7.5,37.3,7.4,37.8,7.2z M34.7,4.8V4.2c-0.5,0-0.9,0-1.3,0.1c-0.3,0-0.8,0.1-1.2,0.2c-0.5,0.1-0.8,0.3-1.1,0.6
				c-0.2,0.3-0.4,0.7-0.4,1.1c0,0.4,0.1,0.8,0.4,1c0.3,0.2,0.7,0.3,1.2,0.3c0.7,0,1.2-0.3,1.7-0.8C34.5,6.2,34.7,5.5,34.7,4.8z"/>
		</g>
	</g>
</g>
<g>
	<g transform="translate(196.239882, 83.499472)">
		<g>
			<path class="st2" d="M45.6,8.7h-1.7V2.6c0-0.4,0-0.7,0-0.9c0-0.2-0.1-0.5-0.2-0.8c-0.1-0.3-0.3-0.5-0.5-0.7
				C42.9,0.1,42.6,0,42.2,0c-0.8,0-1.6,0.5-2.6,1.4c0,0.3,0,0.5,0,0.7v6.6h-1.7V2.6c0-0.4,0-0.7,0-0.9c0-0.2-0.1-0.5-0.2-0.8
				c-0.1-0.3-0.3-0.5-0.5-0.6C37.1,0.1,36.8,0,36.4,0c-0.7,0-1.5,0.4-2.5,1.3v7.4h-1.6V1.5c0-1.1-0.2-1.9-0.6-2.6l1.8-0.2
				c0.2,0.5,0.3,0.9,0.4,1.4c1-1,2-1.5,2.9-1.5c1.3,0,2.2,0.6,2.7,1.7c1.1-1.1,2.1-1.7,3.1-1.7c1.1,0,1.8,0.3,2.3,1
				c0.5,0.6,0.7,1.5,0.7,2.6V8.7z"/>
		</g>
	</g>
</g>
<g>
	<g transform="translate(208.674872, 83.499472)">
		<g>
			<path class="st2" d="M40.1,9c-1.4,0-2.5-0.5-3.3-1.5c-0.8-1-1.2-2.2-1.2-3.7c0-1.4,0.4-2.7,1.2-3.7c0.8-1,1.9-1.5,3.3-1.5
				c1.4,0,2.5,0.5,3.3,1.5c0.8,1,1.2,2.3,1.2,3.7s-0.4,2.7-1.2,3.7C42.6,8.5,41.5,9,40.1,9z M40.1,7.7c0.7,0,1.2-0.2,1.6-0.6
				c0.4-0.4,0.7-0.9,0.9-1.5c0.2-0.6,0.2-1.2,0.2-1.8S42.8,2.5,42.6,2c-0.2-0.6-0.5-1.1-0.9-1.5c-0.4-0.4-1-0.7-1.6-0.7
				c-0.6,0-1.2,0.2-1.6,0.7c-0.4,0.4-0.7,0.9-0.9,1.5c-0.2,0.6-0.2,1.2-0.2,1.8c0,0.6,0.1,1.2,0.2,1.8c0.2,0.6,0.5,1.1,0.9,1.5
				C39,7.5,39.5,7.7,40.1,7.7z"/>
		</g>
	</g>
</g>
<g>
	<g transform="translate(216.71486, 83.499472)">
		<g>
			<path class="st2" d="M38.5,8.1l0.7-1.2c0.8,0.5,1.5,0.8,2.1,0.8c0.6,0,1-0.1,1.4-0.3c0.4-0.2,0.6-0.6,0.6-1.1
				c0-0.4-0.2-0.8-0.5-1c-0.3-0.3-0.7-0.6-1.2-0.8c-0.5-0.2-0.9-0.4-1.4-0.7c-0.4-0.2-0.8-0.5-1.1-0.9c-0.3-0.4-0.5-0.9-0.5-1.4
				c0-0.9,0.3-1.7,1-2.2c0.7-0.5,1.5-0.8,2.5-0.8c1,0,1.9,0.2,2.6,0.7l-0.6,1.3C43.6,0,43-0.2,42.3-0.2c-0.5,0-1,0.1-1.4,0.3
				c-0.4,0.2-0.6,0.6-0.6,1c0,0.4,0.2,0.8,0.5,1.1C41.1,2.5,41.5,2.7,42,3c0.5,0.2,0.9,0.4,1.4,0.7c0.5,0.2,0.8,0.5,1.2,1
				C44.9,5,45,5.5,45,6.1c0,1-0.3,1.7-1,2.2C43.3,8.7,42.5,9,41.4,9C40.6,9,39.6,8.7,38.5,8.1z"/>
		</g>
	</g>
</g>
<g>
	<g transform="translate(226.614846, 83.499472)">
		<g>
			<path class="st2" d="M48.9,6.6l0.7,1.2c-0.9,0.7-2,1.1-3.4,1.1c-1.4,0-2.6-0.5-3.4-1.4c-0.8-1-1.2-2.2-1.2-3.7
				c0-0.9,0.1-1.8,0.4-2.5c0.3-0.8,0.8-1.4,1.5-2C44.2-1.2,45-1.5,46-1.5c1.2,0,2.1,0.3,2.8,1c0.7,0.7,1.1,1.6,1.1,2.8
				c0,0.8-0.3,1.3-1,1.3h-5.4v0.2c0,1,0.3,1.8,0.8,2.6c0.5,0.8,1.2,1.2,2.1,1.2c0.4,0,0.9-0.1,1.4-0.2C48.1,7.1,48.5,6.9,48.9,6.6z
				 M43.5,2.4h4.2c0.2,0,0.2,0,0.3-0.1C48,2.2,48,2.1,48,1.9c0-0.6-0.2-1.1-0.5-1.5c-0.3-0.4-0.8-0.6-1.4-0.6
				c-0.6,0-1.2,0.3-1.7,0.8C43.9,1.1,43.6,1.7,43.5,2.4z"/>
		</g>
	</g>
</g>
<g>
	<g transform="translate(234.024838, 83.499472)">
		<g>
			<path class="st2" d="M52.5,8.7h-1.6V2.6c0-0.3,0-0.6,0-0.8c0-0.2-0.1-0.4-0.1-0.7c-0.1-0.3-0.1-0.4-0.2-0.6
				c-0.1-0.2-0.3-0.3-0.5-0.4C49.7,0.1,49.5,0,49.2,0c-0.9,0-1.8,0.4-2.7,1.3v7.4h-1.6v-7c0-1.3-0.2-2.2-0.7-2.8L46-1.4
				c0.2,0.5,0.3,1,0.4,1.4c1-1,2-1.5,3.1-1.5c1,0,1.8,0.3,2.3,1c0.5,0.6,0.7,1.5,0.7,2.6V8.7z"/>
		</g>
	</g>
</g>
<g>
	<g transform="translate(245.67982, 83.499472)">
		<g>
			<path class="st2" d="M53,7.5l0.3,1.1c-0.8,0.2-1.5,0.4-2,0.4c-0.8,0-1.4-0.2-1.8-0.6C49.1,7.8,49,7.2,49,6.4V0h-1.5v-1
				c1.2,0,1.9-1.1,2.3-3.1h1.2c-0.3,1.2-0.4,2.1-0.4,2.8h2.6L52.9,0h-2.2v6.4c0,0.4,0.1,0.7,0.2,0.9c0.2,0.2,0.4,0.3,0.8,0.3
				C52,7.6,52.4,7.6,53,7.5z"/>
		</g>
	</g>
</g>
<g>
	<g transform="translate(250.584815, 83.499472)">
		<g>
			<path class="st2" d="M59.4,7.2l0.3,1c-0.1,0-0.2,0.1-0.5,0.2c-0.2,0.1-0.4,0.2-0.5,0.2c-0.1,0-0.3,0.1-0.5,0.1
				c-0.2,0.1-0.3,0.1-0.5,0.1c-0.4,0-0.7-0.1-1-0.4c-0.2-0.3-0.4-0.6-0.4-1c-0.9,1-2,1.4-3.1,1.4c-1.1,0-1.8-0.3-2.3-0.9
				c-0.5-0.6-0.7-1.5-0.7-2.6V0c0,0,0-0.1-0.1-0.3c0-0.2-0.1-0.4-0.1-0.6c0-0.2-0.1-0.3-0.1-0.3H52v6.1c0,0.4,0,0.7,0,0.9
				c0,0.2,0.1,0.5,0.2,0.8c0.1,0.3,0.3,0.5,0.5,0.6c0.2,0.2,0.5,0.2,0.9,0.2c0.8,0,1.4-0.2,1.9-0.7c0.5-0.5,0.8-1.1,0.8-1.8V0
				c0,0,0-0.1-0.1-0.3c0-0.2-0.1-0.4-0.1-0.6c0-0.2-0.1-0.3-0.1-0.3H58v8c0,0.3,0,0.5,0.1,0.6c0.1,0.1,0.2,0.2,0.4,0.2
				C58.6,7.5,58.9,7.4,59.4,7.2z"/>
		</g>
	</g>
</g>
<g>
	<g transform="translate(262.329794, 83.499472)">
		<g>
			<path class="st2" d="M62.8,8.7L61,8.9c-0.2-0.4-0.3-0.9-0.4-1.4c-0.8,1-1.7,1.4-2.9,1.4c-1.3,0-2.3-0.5-3-1.5
				c-0.7-1-1.1-2.2-1.1-3.6c0-1.5,0.4-2.7,1.1-3.8c0.8-1,1.9-1.5,3.3-1.5c1,0,1.9,0.3,2.5,0.9v-4.8l-0.3-1.2h1.9V5.9
				C62.1,7,62.3,8,62.8,8.7z M60.5,6.2V2.8c0-0.9-0.2-1.6-0.6-2.1c-0.4-0.5-1-0.8-1.9-0.8c-0.5,0-0.9,0.1-1.3,0.3
				c-0.4,0.2-0.6,0.5-0.8,0.9c-0.2,0.4-0.3,0.8-0.4,1.2c-0.1,0.4-0.1,0.9-0.1,1.4c0,1,0.2,1.9,0.7,2.7c0.5,0.7,1.2,1.1,2.2,1.1
				C58.9,7.5,59.7,7.1,60.5,6.2z"/>
		</g>
	</g>
</g>
<g>
	<g transform="translate(270.699785, 83.499472)">
		<g>
			<path class="st2" d="M60.8,9c-1.4,0-2.5-0.5-3.3-1.5c-0.8-1-1.2-2.2-1.2-3.7c0-1.4,0.4-2.7,1.2-3.7c0.8-1,1.9-1.5,3.3-1.5
				c1.4,0,2.5,0.5,3.3,1.5c0.8,1,1.2,2.3,1.2,3.7s-0.4,2.7-1.2,3.7C63.3,8.5,62.2,9,60.8,9z M60.8,7.7c0.7,0,1.2-0.2,1.6-0.6
				c0.4-0.4,0.7-0.9,0.9-1.5c0.2-0.6,0.2-1.2,0.2-1.8S63.5,2.5,63.3,2c-0.2-0.6-0.5-1.1-0.9-1.5c-0.4-0.4-1-0.7-1.6-0.7
				c-0.6,0-1.2,0.2-1.6,0.7c-0.4,0.4-0.7,0.9-0.9,1.5c-0.2,0.6-0.2,1.2-0.2,1.8c0,0.6,0.1,1.2,0.2,1.8c0.2,0.6,0.5,1.1,0.9,1.5
				C59.7,7.5,60.2,7.7,60.8,7.7z"/>
		</g>
	</g>
</g>
<g>
	<g transform="translate(278.739774, 83.499472)">
		<g>
			<path class="st2" d="M61.5,8.7h-1.6V-5.4c0,0,0-0.1-0.1-0.3c0-0.2-0.1-0.4-0.1-0.6c0-0.2-0.1-0.3-0.1-0.3h1.9V8.7z"/>
		</g>
	</g>
</g>
<g>
	<g transform="translate(282.504765, 83.499472)">
		<g>
			<path class="st2" d="M64.7,9c-1.4,0-2.5-0.5-3.3-1.5c-0.8-1-1.2-2.2-1.2-3.7c0-1.4,0.4-2.7,1.2-3.7c0.8-1,1.9-1.5,3.3-1.5
				C66.1-1.5,67.3-1,68,0c0.8,1,1.2,2.3,1.2,3.7S68.8,6.4,68,7.5C67.3,8.5,66.1,9,64.7,9z M64.7,7.7c0.7,0,1.2-0.2,1.6-0.6
				c0.4-0.4,0.7-0.9,0.9-1.5c0.2-0.6,0.2-1.2,0.2-1.8S67.4,2.5,67.2,2c-0.2-0.6-0.5-1.1-0.9-1.5c-0.4-0.4-1-0.7-1.6-0.7
				c-0.6,0-1.2,0.2-1.6,0.7c-0.4,0.4-0.7,0.9-0.9,1.5C62.1,2.5,62,3.1,62,3.7c0,0.6,0.1,1.2,0.2,1.8c0.2,0.6,0.5,1.1,0.9,1.5
				C63.6,7.5,64.1,7.7,64.7,7.7z"/>
		</g>
	</g>
</g>
<g>
	<g transform="translate(290.544754, 83.499472)">
		<g>
			<path class="st2" d="M65.3,8.7h-1.6V1.5c0-1.2-0.2-2.1-0.6-2.7l1.8-0.2c0.2,0.6,0.4,1.2,0.5,1.9c0.3-0.6,0.8-1,1.4-1.4
				c0.6-0.3,1.2-0.5,1.9-0.5l-0.4,1.8c-1.1,0-2,0.6-2.8,1.8V8.7z"/>
		</g>
	</g>
</g>
</svg>
