<?xml version="1.0" encoding="utf-8"?>
<!-- Generator: Adobe Illustrator 26.0.0, SVG Export Plug-In . SVG Version: 6.00 Build 0)  -->
<svg version="1.1" id="Capa_1" xmlns="http://www.w3.org/2000/svg" xmlns:xlink="http://www.w3.org/1999/xlink" x="0px" y="0px"
	 viewBox="0 0 377.4 132.9" style="enable-background:new 0 0 377.4 132.9;" xml:space="preserve">
<style type="text/css">
	.st0{fill:#FFFFFF;}
	.st1{clip-path:url(#SVGID_00000031175528023105086690000000818689359077525921_);}
	.st2{clip-path:url(#SVGID_00000178169398036177644670000014886202425472495234_);}
	.st3{clip-path:url(#SVGID_00000158016247286523289300000006063713871885022372_);}
	.st4{fill:#004AAD;}
	.st5{clip-path:url(#SVGID_00000003827779344545952210000011481526492041450924_);}
	.st6{clip-path:url(#SVGID_00000148649235599075850620000005514264696516051640_);}
	.st7{clip-path:url(#SVGID_00000039843490107047539900000005382369148058385305_);}
	.st8{fill:#5CE1E6;}
</style>
<g>
	<g transform="translate(215.410536, 54.857888)">
	</g>
</g>
<g>
	<g transform="translate(154.464933, 83.499472)">
	</g>
</g>
<g>
	<g transform="translate(223.164853, 83.499472)">
	</g>
</g>
<g>
	<g transform="translate(242.229828, 83.499472)">
	</g>
</g>
<g>
	<g transform="translate(258.879801, 83.499472)">
	</g>
</g>
<path class="st0" d="M36.6,62.6c0-20.4,16.5-36.9,36.9-36.9c9.3,0,17.8,3.5,24.3,9.2c-7.1-11-19.4-18.2-33.4-18.2
	c-21.9,0-39.7,17.8-39.7,39.7c0,19.1,13.4,35,31.3,38.8C44.5,88.9,36.6,76.7,36.6,62.6"/>
<g>
	<defs>
		<rect id="SVGID_1_" x="14.5" y="6.7" width="121.3" height="119.5"/>
	</defs>
	<clipPath id="SVGID_00000169552083731344007380000004861484612666459779_">
		<use xlink:href="#SVGID_1_"  style="overflow:visible;"/>
	</clipPath>
	<g style="clip-path:url(#SVGID_00000169552083731344007380000004861484612666459779_);">
		<path class="st0" d="M111.6,6.9c-0.7-0.3-1.1,0.5-1.2,1.5c-0.2,2,0.6,4,2.1,5.3c15.8,13.9,12.8,47.9,2.4,45.8
			c-6.8-1.3,0.4-21.5-5.2-22.2c-3.8-0.5-7.1,8.9-6.9,21.2c0.1,7.1,2.4,12.9,4.4,17.9c2.9,7.3,0.2,15.7-6.4,19.9
			c-21.1,13.5-49.5,11-67.9-7.5c-9.8-9.8-15-22.3-15.9-35c-4.1,18.9,1.2,39.4,16,54c18.5,18.5,48.2,22.3,70.8,9.2
			c21.5-12.4,30.5-38,31.8-61.8C137.3,25.3,119.9,10.1,111.6,6.9z M108.7,23.5c8.2,7.2,11.3,19.9,11,30.1c1.3-3.2,2-7.8,1.8-12.8
			c-0.2-6.6-1.8-12.8-4.4-17.9c-3.4-3.3-6.8-5.4-9.3-6.3c-0.7-0.3-1.1,0.5-1.2,1.6C106.3,20.2,107.2,22.2,108.7,23.5"/>
	</g>
</g>
<g>
	<g>
		<defs>
			<rect id="SVGID_00000007406359937867186690000010430057784718450820_" x="49.1" y="45.7" width="52.1" height="45.6"/>
		</defs>
		<clipPath id="SVGID_00000040572363420734483310000007516524506578571687_">
			<use xlink:href="#SVGID_00000007406359937867186690000010430057784718450820_"  style="overflow:visible;"/>
		</clipPath>
		<g style="clip-path:url(#SVGID_00000040572363420734483310000007516524506578571687_);">
			<g>
				<g>
					<defs>
						<path id="SVGID_00000075859638425500065870000015427181621319632770_" d="M49.1,59.2c0,14.5,26,32.2,26,32.2
							s25.9-17.8,26-32.2c0-7.4-6-13.5-13.5-13.5c-5.7,0-10.6,3.7-12.6,8.7c-1.9-5-6.8-8.7-12.6-8.7C55.1,45.7,49.1,51.8,49.1,59.2"
							/>
					</defs>
					<clipPath id="SVGID_00000016795723246071626150000005871367893698023575_">
						<use xlink:href="#SVGID_00000075859638425500065870000015427181621319632770_"  style="overflow:visible;"/>
					</clipPath>
					<g style="clip-path:url(#SVGID_00000016795723246071626150000005871367893698023575_);">
						<path class="st4" d="M49.1,45.7h52v45.6h-52V45.7z"/>
					</g>
				</g>
			</g>
		</g>
	</g>
</g>
<g>
	<g transform="matrix(1, 0, 0, 1, 66, 55)">
		<g>
			<g>
				<defs>
					<rect id="SVGID_00000122706980932334064980000008541245226531151287_" x="-12.8" y="-0.8" width="44" height="38.7"/>
				</defs>
				<clipPath id="SVGID_00000148623424956614791180000018284623525935857567_">
					<use xlink:href="#SVGID_00000122706980932334064980000008541245226531151287_"  style="overflow:visible;"/>
				</clipPath>
				<g style="clip-path:url(#SVGID_00000148623424956614791180000018284623525935857567_);">
					<g>
						<g>
							<defs>
								<rect id="SVGID_00000163781123939866914670000009670548485435821201_" x="-11.6" width="41.5" height="36.3"/>
							</defs>
							<clipPath id="SVGID_00000005242510738650596750000002877686889435566237_">
								<use xlink:href="#SVGID_00000163781123939866914670000009670548485435821201_"  style="overflow:visible;"/>
							</clipPath>
							<g style="clip-path:url(#SVGID_00000005242510738650596750000002877686889435566237_);">
								<g>
									<g>
										<defs>
											<path id="SVGID_00000057146964556125925410000017906648531550533517_" d="M-11.6,10.8c0,11.5,20.7,25.6,20.7,25.6
												s20.6-14.2,20.7-25.6C29.8,4.9,25,0,19.1,0c-4.5,0-8.4,2.9-10,6.9C7.6,2.9,3.7,0-0.9,0C-6.8,0-11.6,4.9-11.6,10.8"/>
										</defs>
										<clipPath id="SVGID_00000160164433267293328600000000967394914545250490_">
											<use xlink:href="#SVGID_00000057146964556125925410000017906648531550533517_"  style="overflow:visible;"/>
										</clipPath>
										<g style="clip-path:url(#SVGID_00000160164433267293328600000000967394914545250490_);">
											<path class="st8" d="M-11.6,0h41.4v36.3h-41.4V0z"/>
										</g>
									</g>
								</g>
							</g>
						</g>
					</g>
				</g>
			</g>
		</g>
	</g>
</g>
<g>
	<g transform="translate(138.384955, 54.857888)">
		<g>
			<path class="st0" d="M35.4-13.8c0,4-1.2,7.2-3.6,9.6c-2.2,2.2-5.2,3.4-8.9,3.4h-9.2v-23.8c0,0-0.1-0.4-0.3-1
				c-0.2-0.7-0.3-1.1-0.3-1.1H23c3.9,0,7,1.2,9.2,3.6C34.3-20.9,35.4-17.7,35.4-13.8z M30.2-13.6c0-1.7-0.2-3.3-0.7-4.6
				c-0.5-1.4-1.3-2.6-2.5-3.5c-1.2-1-2.6-1.5-4.4-1.5h-4v18.9h4.1c1.3,0,2.4-0.3,3.4-0.8s1.8-1.2,2.4-2.1s1-1.9,1.3-2.9
				C30-11.2,30.2-12.4,30.2-13.6z"/>
		</g>
	</g>
</g>
<g>
	<g transform="translate(156.970003, 54.857888)">
		<g>
			<path class="st0" d="M18.4-9.7c0-2.6,0.8-4.8,2.4-6.6S24.5-19,27-19c2.6,0,4.7,0.9,6.2,2.7c1.6,1.8,2.4,4,2.4,6.6
				s-0.8,4.8-2.4,6.6c-1.6,1.8-3.6,2.6-6.2,2.6s-4.7-0.9-6.3-2.6C19.2-4.8,18.4-7,18.4-9.7z M27-16c-1,0-1.8,0.4-2.4,1.1
				c-0.6,0.8-1,1.6-1.2,2.4c-0.2,0.9-0.2,1.8-0.2,2.8s0.1,1.9,0.2,2.8C23.6-6,24-5.1,24.6-4.4C25.2-3.6,26-3.3,27-3.3
				c0.8,0,1.4-0.2,2-0.6s1-0.9,1.2-1.6s0.4-1.4,0.5-2c0.1-0.7,0.2-1.4,0.2-2.1c0-0.8-0.1-1.5-0.2-2.1c-0.1-0.7-0.3-1.3-0.5-2
				C30-14.5,29.6-15,29-15.4C28.5-15.8,27.8-16,27-16z"/>
		</g>
	</g>
</g>
<g>
	<g transform="translate(171.221198, 54.857888)">
		<g>
			<path class="st0" d="M37.9-2.1c-1.2,0.6-2.2,1-3.1,1.3c-0.9,0.3-1.9,0.4-3,0.4c-2.8,0-4.9-0.8-6.4-2.5s-2.2-3.9-2.2-6.7
				s0.8-5,2.5-6.7s3.9-2.6,6.6-2.6c0.9,0,1.8,0.2,2.8,0.5s1.9,0.7,2.6,1.2l-2.1,2.7c-1.2-0.9-2.4-1.4-3.6-1.4c-1.4,0-2.4,0.7-3.1,2
				s-1,2.7-1,4.2c0,1.1,0.1,2,0.4,3c0.3,0.9,0.8,1.7,1.5,2.4s1.6,1,2.7,1c1.1,0,2.3-0.6,3.7-1.7L37.9-2.1z"/>
		</g>
	</g>
</g>
<g>
	<g transform="translate(183.185817, 54.857888)">
		<g>
			<path class="st0" d="M37.9-1.2c-1.6,0.5-3,0.8-4.2,0.8c-1.5,0-2.7-0.4-3.4-1.1c-0.7-0.7-1.1-1.8-1.1-3.4v-10.7h-2.9V-18
				c0.9,0,1.7-0.3,2.4-0.9c0.7-0.6,1.2-1.3,1.6-2.1c0.4-0.8,0.7-1.6,0.9-2.6h3.1c-0.5,2-0.7,3.7-0.7,5.1h4.3L37-15.7h-3.4v9.8
				c0,1.6,0.5,2.4,1.5,2.4c0.5,0,1.3-0.1,2.3-0.4L37.9-1.2z"/>
		</g>
	</g>
</g>
<g>
	<g transform="translate(191.880112, 54.857888)">
		<g>
			<path class="st0" d="M30.1-9.7c0-2.6,0.8-4.8,2.4-6.6c1.6-1.8,3.7-2.7,6.2-2.7c2.6,0,4.7,0.9,6.2,2.7c1.6,1.8,2.4,4,2.4,6.6
				s-0.8,4.8-2.4,6.6c-1.6,1.8-3.6,2.6-6.2,2.6c-2.6,0-4.7-0.9-6.2-2.6C30.9-4.8,30.1-7,30.1-9.7z M38.7-16c-1,0-1.8,0.4-2.4,1.1
				c-0.6,0.8-1,1.6-1.2,2.4c-0.2,0.9-0.2,1.8-0.2,2.8s0.1,1.9,0.2,2.8c0.2,0.9,0.6,1.7,1.2,2.5c0.6,0.7,1.4,1.1,2.4,1.1
				c0.8,0,1.4-0.2,2-0.6s1-0.9,1.2-1.6s0.4-1.4,0.5-2c0.1-0.7,0.2-1.4,0.2-2.1c0-0.8-0.1-1.5-0.2-2.1c-0.1-0.7-0.3-1.3-0.5-2
				s-0.7-1.2-1.2-1.6C40.1-15.8,39.4-16,38.7-16z"/>
		</g>
	</g>
</g>
<g>
	<g transform="translate(206.131308, 54.857888)">
		<g>
			<path class="st0" d="M46.4-18.8l-0.7,4.2h-0.1c-1,0-1.9,0.3-2.7,0.9c-0.8,0.6-1.5,1.4-2.2,2.4v10.5h-4.2v-12.9
				c0-2.2-0.4-3.7-1.1-4.8l4.5-0.4c0.5,1.2,0.8,2.4,0.9,3.7c0.6-1,1.5-1.9,2.5-2.6C44.2-18.5,45.3-18.8,46.4-18.8z"/>
		</g>
	</g>
</g>
<g>
	<g transform="translate(221.525787, 54.857888)">
		<g>
			<path class="st0" d="M56.6-8.5C56.6-6,55.7-4,54-2.6c-1.8,1.4-3.9,2.1-6.5,2.1c-3.2,0-6-0.7-8.3-2l1.7-3.9
				c1.8,1.7,3.9,2.6,6.2,2.6c1.2,0,2.2-0.3,3.1-1c0.9-0.7,1.3-1.6,1.3-2.8c0-0.9-0.3-1.6-0.9-2.3c-0.6-0.7-1.3-1.2-2.1-1.6
				c-0.8-0.4-1.8-0.8-2.8-1.3s-1.9-1-2.8-1.5c-0.8-0.5-1.5-1.3-2.1-2.2c-0.6-1-0.8-2.1-0.8-3.3c0-2.4,0.8-4.3,2.5-5.5
				c1.7-1.2,3.9-1.9,6.8-1.9c1.1,0,2.3,0.2,3.7,0.6s2.5,0.9,3.2,1.5l-2.5,3c-1.3-1.2-3-1.8-4.9-1.8c-1,0-1.8,0.3-2.6,0.8
				c-0.7,0.5-1.1,1.2-1.1,2.2c0,0.8,0.3,1.6,0.9,2.2c0.6,0.6,1.3,1.1,2.1,1.5s1.8,0.8,2.8,1.4c1,0.5,1.9,1,2.8,1.6
				c0.8,0.5,1.5,1.3,2.1,2.3C56.3-10.9,56.6-9.8,56.6-8.5z"/>
		</g>
	</g>
</g>
<g>
	<g transform="translate(235.245223, 54.857888)">
		<g>
			<path class="st0" d="M61.9-1.5c-0.2,0-0.5,0.1-1,0.3c-0.4,0.1-0.8,0.2-1.1,0.3s-0.6,0.2-1,0.2c-0.4,0.1-0.7,0.1-1,0.1
				c-0.7,0-1.3-0.2-1.8-0.6s-0.8-1-1-1.7c-1.2,1.7-3,2.5-5.3,2.5c-1.4,0-2.6-0.4-3.6-1.2c-0.9-0.8-1.4-1.9-1.4-3.3
				c0-1.2,0.3-2.3,0.9-3.1c0.6-1,1.4-1.6,2.4-2s2-0.7,3.1-0.9c1-0.2,2.1-0.3,3.2-0.3v-2.3c0-0.9-0.2-1.6-0.6-1.9
				c-0.4-0.4-1.1-0.6-1.9-0.6c-1.2,0-2.8,0.7-4.5,2.1l-1.7-2.8c2.1-1.5,4.5-2.2,7.1-2.2c1.9,0,3.3,0.5,4.4,1.5c1,1,1.6,2.4,1.6,4.3
				v7.7c0,1.2,0.3,1.8,0.8,1.8c0.2,0,0.8-0.1,1.8-0.4L61.9-1.5z M54.3-7.4v-0.8c-3.4,0-5.2,0.9-5.2,2.8c0,0.5,0.2,0.9,0.6,1.2
				c0.4,0.3,0.9,0.5,1.5,0.5c0.9,0,1.7-0.4,2.2-1.1C54-5.6,54.3-6.5,54.3-7.4z"/>
		</g>
	</g>
</g>
<g>
	<g transform="translate(248.379717, 54.857888)">
		<g>
			<path class="st0" d="M54.6-0.8h-4.3v-25.4c0,0,0-0.2-0.1-0.5s-0.1-0.6-0.2-0.9c-0.1-0.3-0.1-0.5-0.1-0.5h4.7
				C54.6-28.1,54.6-0.8,54.6-0.8z"/>
		</g>
	</g>
</g>
<g>
	<g transform="translate(255.053319, 54.857888)">
		<g>
			<path class="st0" d="M70.6-1.5c-0.2,0-0.6,0.2-1.2,0.4c-0.7,0.2-1.2,0.3-1.6,0.4S67-0.6,66.6-0.6c-0.7,0-1.3-0.2-1.8-0.6
				s-0.8-1-1-1.7C62-1.2,60-0.3,57.9-0.3c-1.9,0-3.3-0.5-4.1-1.6C53-3,52.6-4.6,52.6-6.5v-10l-0.4-1.9h4.7v11.2
				c0,2.4,0.8,3.5,2.3,3.5c1,0,1.9-0.3,2.6-0.9C62.6-5.3,63-6.2,63-7.2v-9.4c0,0,0-0.2-0.1-0.5s-0.1-0.6-0.2-0.9
				c-0.1-0.3-0.1-0.5-0.1-0.6h4.8v12.9c0,1.2,0.3,1.9,0.9,1.9c0.1,0,0.6-0.1,1.7-0.4L70.6-1.5z"/>
		</g>
	</g>
</g>
<g>
	<g transform="translate(269.75651, 54.857888)">
		<g>
			<path class="st0" d="M73.4-0.9l-4.3,0.4c-0.2-0.5-0.4-1.2-0.5-2.1C68.1-2,67.4-1.4,66.5-1s-1.9,0.6-2.8,0.6
				c-2.4,0-4.2-0.9-5.6-2.7c-1.3-1.8-2-3.9-2-6.4c0-2.7,0.7-4.9,2.1-6.7c1.4-1.8,3.5-2.7,6.1-2.7c1.7,0,3,0.4,3.9,1.1
				c0-0.6,0-1.4,0-2.2v-6.2l-0.5-1.9h4.8v22.2C72.5-3.7,72.8-2,73.4-0.9z M68.3-5.4v-5.8c0-1.3-0.3-2.5-0.8-3.4s-1.4-1.3-2.7-1.3
				c-1,0-1.8,0.4-2.4,1.1c-0.6,0.7-1,1.5-1.2,2.4c-0.2,0.9-0.3,1.8-0.3,2.7c0,1.6,0.3,3,1,4.2c0.7,1.3,1.7,1.9,3.1,1.9
				c0.6,0,1.3-0.2,1.9-0.5C67.4-4.4,67.9-4.9,68.3-5.4z"/>
		</g>
	</g>
</g>
<g>
	<g transform="translate(138.384955, 83.499472)">
		<g>
			<path class="st0" d="M18,8.7h-1.9V-4.5h-4.3v-1.4h10.6v1.4H18V8.7z"/>
		</g>
	</g>
</g>
<g>
	<g transform="translate(147.054942, 83.499472)">
		<g>
			<path class="st0" d="M22.4,6.6l0.7,1.2C22.2,8.6,21,9,19.7,9c-1.4,0-2.6-0.5-3.4-1.4c-0.8-1-1.2-2.2-1.2-3.7
				c0-0.9,0.1-1.8,0.4-2.5c0.3-0.8,0.8-1.4,1.5-2c0.7-0.5,1.5-0.8,2.4-0.8c1.2,0,2.1,0.3,2.8,1c0.7,0.7,1.1,1.6,1.1,2.8
				c0,0.8-0.3,1.3-1,1.3h-5.4v0.2c0,1,0.3,1.8,0.8,2.6s1.2,1.2,2.1,1.2c0.4,0,0.9-0.1,1.4-0.2C21.6,7.1,22,6.9,22.4,6.6z M17,2.4
				h4.2c0.2,0,0.2,0,0.3-0.1c0-0.1,0.1-0.2,0.1-0.3c0-0.6-0.2-1.1-0.5-1.5s-0.8-0.6-1.4-0.6S18.5,0.2,18,0.7
				C17.4,1.1,17.1,1.7,17,2.4z"/>
		</g>
	</g>
</g>
<g>
	<g transform="translate(157.914926, 83.499472)">
		<g>
			<path class="st0" d="M27.5,7.2l0.3,1c-0.1,0-0.2,0.1-0.5,0.2c-0.2,0.1-0.4,0.2-0.5,0.2s-0.3,0.1-0.5,0.1
				c-0.2,0.1-0.3,0.1-0.5,0.1c-0.4,0-0.7-0.1-1-0.4c-0.2-0.3-0.4-0.6-0.5-1c-0.9,0.9-1.9,1.4-3,1.4c-0.8,0-1.5-0.2-2-0.7
				S18.5,7,18.5,6.2c0-2.2,1.9-3.4,5.7-3.4v-1c0-1.3-0.6-2-1.7-2c-0.5,0-1,0.1-1.6,0.3c-0.5,0.2-1,0.5-1.3,0.9l-0.8-1.2
				c1.1-0.9,2.3-1.3,3.8-1.3c1,0,1.8,0.3,2.4,0.9c0.5,0.6,0.8,1.4,0.8,2.4v5c0,0.3,0,0.5,0.1,0.6s0.2,0.2,0.4,0.2
				C26.7,7.5,27,7.4,27.5,7.2z M24.4,4.8V4.2c-0.5,0-0.9,0-1.3,0.1c-0.3,0-0.8,0.1-1.2,0.2c-0.5,0.1-0.8,0.3-1.1,0.6
				c-0.2,0.3-0.4,0.7-0.4,1.1s0.1,0.8,0.4,1s0.7,0.3,1.2,0.3c0.7,0,1.2-0.3,1.7-0.8S24.4,5.5,24.4,4.8z"/>
		</g>
	</g>
</g>
<g>
	<g transform="translate(165.324918, 83.499472)">
		<g>
			<path class="st0" d="M21.8,13H21v-1.3h0.2c0.4,0,0.8-0.1,1.1-0.3c0.3-0.2,0.6-0.4,0.8-0.8c0.2-0.3,0.4-0.7,0.6-1
				C23.8,9.3,24,9,24.1,8.5l-3.6-9.9h1.8L25,6.3l2.6-7.6h1.6l-3.5,10C24.6,11.6,23.4,13,21.8,13z"/>
		</g>
	</g>
</g>
<g>
	<g transform="translate(172.164914, 83.499472)">
		<g>
			<path class="st0" d="M33.3,7.2l0.3,1c-0.1,0-0.2,0.1-0.5,0.2c-0.2,0.1-0.4,0.2-0.5,0.2s-0.3,0.1-0.5,0.1
				c-0.2,0.1-0.3,0.1-0.5,0.1c-0.4,0-0.7-0.1-1-0.4c-0.2-0.3-0.4-0.6-0.4-1c-0.9,1-2,1.4-3.1,1.4s-1.8-0.3-2.3-0.9s-0.7-1.5-0.7-2.6
				V0c0,0,0-0.1-0.1-0.3c0-0.2-0.1-0.4-0.1-0.6s-0.1-0.3-0.1-0.3h1.9v6.1c0,0.4,0,0.7,0,0.9c0,0.2,0.1,0.5,0.2,0.8s0.3,0.5,0.5,0.6
				c0.2,0.2,0.5,0.2,0.9,0.2c0.8,0,1.4-0.2,1.9-0.7c0.8-0.4,1-1,1-1.7V0c0,0,0-0.1-0.1-0.3c0-0.2-0.1-0.4-0.1-0.6s0-0.3,0-0.3h1.9v8
				c0,0.3,0,0.5,0.1,0.6c0.1,0.1,0.2,0.2,0.4,0.2C32.5,7.5,32.8,7.4,33.3,7.2z"/>
		</g>
	</g>
</g>
<g>
	<g transform="translate(180.4599, 83.499472)">
		<g>
			<path class="st0" d="M35.5,8.7l-1.8,0.2c-0.2-0.4-0.3-0.9-0.4-1.4c-0.8,1-1.7,1.4-2.9,1.4c-1.3,0-2.3-0.5-3-1.5s-1.1-2.2-1.1-3.6
				c0-1.5,0.4-2.7,1.1-3.8c0.8-1,1.9-1.5,3.3-1.5c1,0,1.9,0.3,2.5,0.9v-4.8l-0.3-1.2h1.9V5.9C34.8,7,35,8,35.5,8.7z M33.2,6.2V2.8
				c0-0.9-0.2-1.6-0.6-2.1c-0.4-0.5-1-0.8-1.9-0.8c-0.5,0-0.9,0.1-1.3,0.3s-0.6,0.5-0.8,0.9c-0.2,0.4-0.3,0.8-0.4,1.2
				C28.1,2.8,28,3.2,28,3.7c0,1,0.2,1.9,0.7,2.7c0.5,0.7,1.2,1.1,2.2,1.1C31.7,7.5,32.4,7.1,33.2,6.2z"/>
		</g>
	</g>
</g>
<g>
	<g transform="translate(188.829891, 83.499472)">
		<g>
			<path class="st0" d="M37.8,7.2l0.3,1c-0.1,0-0.2,0.1-0.5,0.2c-0.2,0.1-0.4,0.2-0.5,0.2s-0.3,0.1-0.5,0.1
				c-0.2,0.1-0.3,0.1-0.5,0.1c-0.4,0-0.7-0.1-1-0.4c-0.2-0.3-0.4-0.6-0.5-1c-0.9,0.9-1.9,1.4-3,1.4c-0.8,0-1.5-0.2-2-0.7
				c-0.3-0.4-0.6-1-0.6-1.8c0-2.2,1.9-3.4,5.7-3.4V1.8c0-1.3-0.6-2-1.7-2c-0.5,0-1,0.1-1.6,0.3c-0.5,0.2-1,0.5-1.3,0.9l-0.8-1.2
				c1.1-0.9,2.3-1.3,3.8-1.3c1,0,1.8,0.3,2.4,0.9C36,0,36.3,0.8,36.3,1.8v5c0,0.3,0,0.5,0.1,0.6s0.2,0.2,0.4,0.2
				C37,7.5,37.3,7.4,37.8,7.2z M34.7,4.8V4.2c-0.5,0-0.9,0-1.3,0.1c-0.3,0-0.8,0.1-1.2,0.2c-0.5,0.1-0.8,0.3-1.1,0.6
				c-0.2,0.3-0.4,0.7-0.4,1.1s0.1,0.8,0.4,1s0.7,0.3,1.2,0.3c0.7,0,1.2-0.3,1.7-0.8S34.7,5.5,34.7,4.8z"/>
		</g>
	</g>
</g>
<g>
	<g transform="translate(196.239882, 83.499472)">
		<g>
			<path class="st0" d="M45.6,8.7h-1.7V2.6c0-0.4,0-0.7,0-0.9s-0.1-0.5-0.2-0.8c-0.1-0.3-0.3-0.5-0.5-0.7c-0.3-0.1-0.6-0.2-1-0.2
				c-0.8,0-1.6,0.5-2.6,1.4c0,0.3,0,0.5,0,0.7v6.6h-1.7V2.6c0-0.4,0-0.7,0-0.9s-0.1-0.5-0.2-0.8c-0.1-0.3-0.3-0.5-0.5-0.6
				C37.1,0.1,36.8,0,36.4,0c-0.7,0-1.5,0.4-2.5,1.3v7.4h-1.6V1.5c0-1.1-0.2-1.9-0.6-2.6l1.8-0.2c0.2,0.5,0.3,0.9,0.4,1.4
				c1-1,2-1.5,2.9-1.5c1.3,0,2.2,0.6,2.7,1.7c1.1-1.1,2.1-1.7,3.1-1.7c1.1,0,1.8,0.3,2.3,1c0.5,0.6,0.7,1.5,0.7,2.6
				C45.6,2.2,45.6,8.7,45.6,8.7z"/>
		</g>
	</g>
</g>
<g>
	<g transform="translate(208.674872, 83.499472)">
		<g>
			<path class="st0" d="M40.1,9c-1.4,0-2.5-0.5-3.3-1.5s-1.2-2.2-1.2-3.7c0-1.4,0.4-2.7,1.2-3.7s1.9-1.5,3.3-1.5
				c1.4,0,2.5,0.5,3.3,1.5s1.2,2.3,1.2,3.7s-0.4,2.7-1.2,3.7S41.5,9,40.1,9z M40.1,7.7c0.7,0,1.2-0.2,1.6-0.6
				c0.4-0.4,0.7-0.9,0.9-1.5s0.2-1.2,0.2-1.8s0-1.3-0.2-1.8c-0.2-0.6-0.5-1.1-0.9-1.5s-1-0.7-1.6-0.7S38.9,0,38.5,0.5
				c-0.4,0.4-0.7,0.9-0.9,1.5s-0.2,1.2-0.2,1.8s0.1,1.2,0.2,1.8c0.2,0.6,0.5,1.1,0.9,1.5C39,7.5,39.5,7.7,40.1,7.7z"/>
		</g>
	</g>
</g>
<g>
	<g transform="translate(216.71486, 83.499472)">
		<g>
			<path class="st0" d="M38.5,8.1l0.7-1.2c0.8,0.5,1.5,0.8,2.1,0.8s1-0.1,1.4-0.3c0.4-0.2,0.6-0.6,0.6-1.1c0-0.4-0.2-0.8-0.5-1
				c-0.3-0.3-0.7-0.6-1.2-0.8c-0.5-0.2-0.9-0.4-1.4-0.7c-0.4-0.2-0.8-0.5-1.1-0.9S38.6,2,38.6,1.5c0-0.9,0.3-1.7,1-2.2
				s1.5-0.8,2.5-0.8s1.9,0.2,2.6,0.7l-0.6,1.3C43.6,0,43-0.2,42.3-0.2c-0.5,0-1,0.1-1.4,0.3s-0.6,0.6-0.6,1s0.2,0.8,0.5,1.1
				S41.5,2.7,42,3c0.5,0.2,0.9,0.4,1.4,0.7c0.5,0.2,0.8,0.5,1.2,1C44.9,5,45,5.5,45,6.1c0,1-0.3,1.7-1,2.2C43.3,8.7,42.5,9,41.4,9
				C40.6,9,39.6,8.7,38.5,8.1z"/>
		</g>
	</g>
</g>
<g>
	<g transform="translate(226.614846, 83.499472)">
		<g>
			<path class="st0" d="M48.9,6.6l0.7,1.2c-0.9,0.7-2,1.1-3.4,1.1s-2.6-0.5-3.4-1.4c-0.8-1-1.2-2.2-1.2-3.7c0-0.9,0.1-1.8,0.4-2.5
				c0.3-0.8,0.8-1.4,1.5-2C44.2-1.2,45-1.5,46-1.5c1.2,0,2.1,0.3,2.8,1s1.1,1.6,1.1,2.8c0,0.8-0.3,1.3-1,1.3h-5.4v0.2
				c0,1,0.3,1.8,0.8,2.6s1.2,1.2,2.1,1.2c0.4,0,0.9-0.1,1.4-0.2C48.1,7.1,48.5,6.9,48.9,6.6z M43.5,2.4h4.2c0.2,0,0.2,0,0.3-0.1
				c0-0.1,0-0.2,0-0.4c0-0.6-0.2-1.1-0.5-1.5s-0.8-0.6-1.4-0.6c-0.6,0-1.2,0.3-1.7,0.8C43.9,1.1,43.6,1.7,43.5,2.4z"/>
		</g>
	</g>
</g>
<g>
	<g transform="translate(234.024838, 83.499472)">
		<g>
			<path class="st0" d="M52.5,8.7h-1.6V2.6c0-0.3,0-0.6,0-0.8s-0.1-0.4-0.1-0.7c-0.1-0.3-0.1-0.4-0.2-0.6c-0.1-0.2-0.3-0.3-0.5-0.4
				c-0.4,0-0.6-0.1-0.9-0.1c-0.9,0-1.8,0.4-2.7,1.3v7.4h-1.6v-7c0-1.3-0.2-2.2-0.7-2.8L46-1.4c0.2,0.5,0.3,1,0.4,1.4
				c1-1,2-1.5,3.1-1.5c1,0,1.8,0.3,2.3,1c0.5,0.6,0.7,1.5,0.7,2.6V8.7z"/>
		</g>
	</g>
</g>
<g>
	<g transform="translate(245.67982, 83.499472)">
		<g>
			<path class="st0" d="M53,7.5l0.3,1.1c-0.8,0.2-1.5,0.4-2,0.4c-0.8,0-1.4-0.2-1.8-0.6c-0.4-0.6-0.5-1.2-0.5-2V0h-1.5v-1
				c1.2,0,1.9-1.1,2.3-3.1H51c-0.3,1.2-0.4,2.1-0.4,2.8h2.6L52.9,0h-2.2v6.4c0,0.4,0.1,0.7,0.2,0.9c0.2,0.2,0.4,0.3,0.8,0.3
				C52,7.6,52.4,7.6,53,7.5z"/>
		</g>
	</g>
</g>
<g>
	<g transform="translate(250.584815, 83.499472)">
		<g>
			<path class="st0" d="M59.4,7.2l0.3,1c-0.1,0-0.2,0.1-0.5,0.2c-0.2,0.1-0.4,0.2-0.5,0.2s-0.3,0.1-0.5,0.1
				c-0.2,0.1-0.3,0.1-0.5,0.1c-0.4,0-0.7-0.1-1-0.4c-0.2-0.3-0.4-0.6-0.4-1c-0.9,1-2,1.4-3.1,1.4s-1.8-0.3-2.3-0.9s-0.7-1.5-0.7-2.6
				V0c0,0,0-0.1-0.1-0.3c0-0.2-0.1-0.4-0.1-0.6s-0.1-0.3-0.1-0.3H52v6.1c0,0.4,0,0.7,0,0.9c0,0.2,0.1,0.5,0.2,0.8
				c0.1,0.3,0.3,0.5,0.5,0.6c0.2,0.2,0.5,0.2,0.9,0.2c0.8,0,1.4-0.2,1.9-0.7s0.8-1.1,0.8-1.8V0c0,0,0-0.1-0.1-0.3
				c0-0.2-0.1-0.4-0.1-0.6S56-1.2,56-1.2h2v8c0,0.3,0,0.5,0.1,0.6s0.2,0.2,0.4,0.2C58.6,7.5,58.9,7.4,59.4,7.2z"/>
		</g>
	</g>
</g>
<g>
	<g transform="translate(262.329794, 83.499472)">
		<g>
			<path class="st0" d="M62.8,8.7L61,8.9c-0.2-0.4-0.3-0.9-0.4-1.4c-0.8,1-1.7,1.4-2.9,1.4c-1.3,0-2.3-0.5-3-1.5s-1.1-2.2-1.1-3.6
				c0-1.5,0.4-2.7,1.1-3.8c0.8-1,1.9-1.5,3.3-1.5c1,0,1.9,0.3,2.5,0.9v-4.8l-0.3-1.2h1.9V5.9C62.1,7,62.3,8,62.8,8.7z M60.5,6.2V2.8
				c0-0.9-0.2-1.6-0.6-2.1c-0.4-0.5-1-0.8-1.9-0.8c-0.5,0-0.9,0.1-1.3,0.3c-0.4,0.2-0.6,0.5-0.8,0.9s-0.3,0.8-0.4,1.2
				c-0.1,0.4-0.1,0.9-0.1,1.4c0,1,0.2,1.9,0.7,2.7c0.5,0.7,1.2,1.1,2.2,1.1C58.9,7.5,59.7,7.1,60.5,6.2z"/>
		</g>
	</g>
</g>
<g>
	<g transform="translate(270.699785, 83.499472)">
		<g>
			<path class="st0" d="M60.8,9c-1.4,0-2.5-0.5-3.3-1.5s-1.2-2.2-1.2-3.7c0-1.4,0.4-2.7,1.2-3.7s1.9-1.5,3.3-1.5
				c1.4,0,2.5,0.5,3.3,1.5c0.8,1,1.2,2.3,1.2,3.7s-0.4,2.7-1.2,3.7C63.3,8.5,62.2,9,60.8,9z M60.8,7.7c0.7,0,1.2-0.2,1.6-0.6
				c0.4-0.4,0.7-0.9,0.9-1.5s0.2-1.2,0.2-1.8s0-1.3-0.2-1.8c-0.2-0.6-0.5-1.1-0.9-1.5s-1-0.7-1.6-0.7S59.6,0,59.2,0.5
				c-0.4,0.4-0.7,0.9-0.9,1.5s-0.2,1.2-0.2,1.8s0.1,1.2,0.2,1.8c0.2,0.6,0.5,1.1,0.9,1.5C59.7,7.5,60.2,7.7,60.8,7.7z"/>
		</g>
	</g>
</g>
<g>
	<g transform="translate(278.739774, 83.499472)">
		<g>
			<path class="st0" d="M61.5,8.7h-1.6V-5.4c0,0,0-0.1-0.1-0.3c0-0.2-0.1-0.4-0.1-0.6s-0.1-0.3-0.1-0.3h1.9
				C61.5-6.6,61.5,8.7,61.5,8.7z"/>
		</g>
	</g>
</g>
<g>
	<g transform="translate(282.504765, 83.499472)">
		<g>
			<path class="st0" d="M64.7,9c-1.4,0-2.5-0.5-3.3-1.5s-1.2-2.2-1.2-3.7c0-1.4,0.4-2.7,1.2-3.7s1.9-1.5,3.3-1.5
				C66.1-1.5,67.3-1,68,0c0.8,1,1.2,2.3,1.2,3.7S68.8,6.4,68,7.5C67.3,8.5,66.1,9,64.7,9z M64.7,7.7c0.7,0,1.2-0.2,1.6-0.6
				s0.7-0.9,0.9-1.5c0.2-0.6,0.2-1.2,0.2-1.8s0-1.3-0.2-1.8c-0.2-0.6-0.5-1.1-0.9-1.5s-1-0.7-1.6-0.7S63.5,0,63.1,0.5
				c-0.4,0.4-0.7,0.9-0.9,1.5C62.1,2.5,62,3.1,62,3.7s0.1,1.2,0.2,1.8c0.2,0.6,0.5,1.1,0.9,1.5C63.6,7.5,64.1,7.7,64.7,7.7z"/>
		</g>
	</g>
</g>
<g>
	<g transform="translate(290.544754, 83.499472)">
		<g>
			<path class="st0" d="M65.3,8.7h-1.6V1.5c0-1.2-0.2-2.1-0.6-2.7l1.8-0.2c0.2,0.6,0.4,1.2,0.5,1.9c0.3-0.6,0.8-1,1.4-1.4
				c0.6-0.3,1.2-0.5,1.9-0.5l-0.4,1.8c-1.1,0-2,0.6-2.8,1.8v6.5H65.3z"/>
		</g>
	</g>
</g>
</svg>
