<?xml version="1.0" encoding="utf-8"?>
<!-- Generator: Adobe Illustrator 26.0.0, SVG Export Plug-In . SVG Version: 6.00 Build 0)  -->
<svg version="1.1" id="Capa_1" xmlns="http://www.w3.org/2000/svg" xmlns:xlink="http://www.w3.org/1999/xlink" x="0px" y="0px"
	 viewBox="0 0 150 150" style="enable-background:new 0 0 150 150;" xml:space="preserve">
<style type="text/css">
	.st0{fill:#FFFFFF;}
	.st1{fill-rule:evenodd;clip-rule:evenodd;fill:#FFFFFF;}
</style>
<g id="XMLID_47_">
	<path id="XMLID_52_" class="st0" d="M211.69,37.43c13.16,0,14.72,0.05,19.91,0.29c4.81,0.22,7.41,1.02,9.15,1.7
		c2.3,0.89,3.94,1.96,5.67,3.69c1.73,1.73,2.79,3.37,3.69,5.67c0.67,1.74,1.48,4.35,1.7,9.15c0.24,5.2,0.29,6.75,0.29,19.91
		c0,13.16-0.05,14.72-0.29,19.91c-0.22,4.81-1.02,7.41-1.7,9.15c-0.89,2.3-1.96,3.94-3.69,5.67c-1.73,1.73-3.37,2.79-5.67,3.69
		c-1.74,0.67-4.35,1.48-9.15,1.7c-5.2,0.24-6.75,0.29-19.91,0.29c-13.16,0-14.72-0.05-19.91-0.29c-4.81-0.22-7.41-1.02-9.15-1.7
		c-2.3-0.89-3.94-1.96-5.67-3.69c-1.73-1.73-2.79-3.37-3.69-5.67c-0.67-1.74-1.48-4.34-1.7-9.15c-0.24-5.2-0.29-6.75-0.29-19.91
		c0-13.16,0.05-14.72,0.29-19.91c0.22-4.81,1.02-7.41,1.7-9.15c0.89-2.3,1.96-3.94,3.69-5.67c1.73-1.73,3.37-2.79,5.67-3.69
		c1.74-0.67,4.35-1.48,9.15-1.7C196.98,37.48,198.53,37.43,211.69,37.43 M211.69,28.55c-13.38,0-15.06,0.06-20.32,0.3
		c-5.25,0.24-8.83,1.07-11.96,2.29c-3.24,1.26-5.99,2.94-8.73,5.69c-2.74,2.74-4.42,5.49-5.68,8.73c-1.22,3.13-2.05,6.72-2.29,11.96
		c-0.24,5.26-0.3,6.93-0.3,20.32s0.05,15.06,0.3,20.32c0.24,5.25,1.07,8.83,2.29,11.96c1.26,3.24,2.94,5.99,5.68,8.73
		c2.74,2.74,5.49,4.42,8.73,5.69c3.13,1.22,6.72,2.05,11.96,2.29c5.26,0.24,6.93,0.3,20.32,0.3c13.38,0,15.06-0.06,20.32-0.3
		c5.25-0.24,8.83-1.07,11.96-2.29c3.24-1.26,5.99-2.94,8.73-5.69c2.74-2.74,4.42-5.49,5.69-8.73c1.22-3.13,2.05-6.72,2.29-11.96
		c0.24-5.26,0.3-6.93,0.3-20.32s-0.05-15.06-0.3-20.32c-0.24-5.25-1.07-8.83-2.29-11.96c-1.26-3.24-2.94-5.99-5.69-8.73
		c-2.74-2.74-5.49-4.42-8.73-5.69c-3.13-1.22-6.72-2.05-11.96-2.29C226.75,28.61,225.08,28.55,211.69,28.55"/>
	<path id="XMLID_49_" class="st0" d="M211.69,52.53c-13.98,0-25.31,11.33-25.31,25.31s11.33,25.31,25.31,25.31
		c13.98,0,25.31-11.33,25.31-25.31S225.67,52.53,211.69,52.53 M211.69,94.26c-9.07,0-16.43-7.36-16.43-16.43s7.35-16.43,16.43-16.43
		c9.07,0,16.43,7.35,16.43,16.43C228.12,86.91,220.76,94.26,211.69,94.26"/>
	<path id="XMLID_48_" class="st0" d="M243.91,51.53c0,3.27-2.65,5.91-5.91,5.91c-3.27,0-5.91-2.65-5.91-5.91
		c0-3.27,2.65-5.91,5.91-5.91C241.26,45.61,243.91,48.26,243.91,51.53"/>
</g>
<g id="XMLID_00000076593156823611002240000005220554486625424296_">
	<path id="XMLID_00000060720146071589171670000014885672782191135635_" class="st1" d="M123.18,72.47
		C122.51,46.14,100.82,25,74.12,25c-26.38,0-47.88,20.66-49.03,46.57c-0.02,0.71-0.04,1.42-0.04,2.14c0,9.22,2.57,17.81,7.03,25.16
		L23.23,125l27.18-8.64c7.03,3.86,15.12,6.07,23.71,6.07c27.12,0,49.08-21.81,49.08-48.71C123.2,73.3,123.2,72.88,123.18,72.47z
		 M74.12,114.65c-8.38,0-16.18-2.48-22.7-6.78l-15.85,5.05l5.15-15.21c-4.94-6.76-7.86-15.05-7.86-24.01c0-1.33,0.07-2.66,0.21-3.97
		c2.02-20.73,19.67-36.97,41.06-36.97c21.67,0,39.47,16.66,41.13,37.75c0.09,1.06,0.14,2.12,0.14,3.19
		C115.39,96.3,96.87,114.65,74.12,114.65z"/>
	<path id="XMLID_00000071553013506003142600000006491183667490113978_" class="st1" d="M96.62,83.55c-1.22-0.6-7.12-3.49-8.23-3.88
		c-1.1-0.41-1.91-0.6-2.71,0.6s-3.13,3.88-3.81,4.66c-0.71,0.81-1.4,0.9-2.62,0.3c-1.2-0.6-5.08-1.84-9.67-5.93
		c-3.56-3.15-6-7.05-6.69-8.25c-0.69-1.19-0.07-1.84,0.53-2.43c0.55-0.55,1.2-1.4,1.82-2.09c0.16-0.21,0.3-0.39,0.44-0.57
		c0.27-0.44,0.48-0.85,0.76-1.42c0.41-0.8,0.21-1.49-0.09-2.09c-0.3-0.6-2.71-6.48-3.72-8.87c-0.99-2.39-2-1.98-2.71-1.98
		c-0.69,0-1.49-0.11-2.3-0.11s-2.12,0.3-3.22,1.49c-1.1,1.2-4.21,4.09-4.21,9.97c0,1.38,0.25,2.76,0.62,4.07
		c1.22,4.21,3.84,7.67,4.3,8.27c0.6,0.78,8.32,13.23,20.54,18.04c12.25,4.76,12.25,3.17,14.45,2.96c2.21-0.19,7.12-2.87,8.11-5.68
		c1.01-2.78,1.01-5.17,0.71-5.68C98.61,84.44,97.81,84.14,96.62,83.55z"/>
</g>
</svg>
